<?xml version="1.0" encoding="UTF-8"?>
<svg xmlns="http://www.w3.org/2000/svg" xmlns:xlink="http://www.w3.org/1999/xlink" width="100px" height="111px" viewBox="0 0 100 110" version="1.1">
<g id="surface1">
<path style=" stroke:none;fill-rule:nonzero;fill:rgb(0%,0%,0%);fill-opacity:1;" d="M 33.371094 20.898438 L 33.371094 41.8125 L 20.609375 29.148438 L 7.863281 16.5 L 3.960938 20.371094 L 0.0546875 24.246094 L 15.554688 39.621094 L 31.050781 55 L 15.554688 70.378906 L 0.0546875 85.753906 L 3.960938 89.628906 L 7.863281 93.5 L 20.609375 80.851562 L 33.371094 68.1875 L 33.371094 110 L 36.121094 109.988281 L 38.859375 109.988281 L 54.636719 94.441406 C 63.316406 85.890625 70.441406 78.839844 70.464844 78.773438 C 70.488281 78.707031 65.136719 73.328125 58.585938 66.832031 L 46.664062 55 L 58.585938 43.167969 C 65.136719 36.671875 70.488281 31.292969 70.464844 31.226562 C 70.441406 31.171875 63.304688 24.109375 54.617188 15.558594 L 38.8125 0 L 33.371094 0 Z M 54.863281 31.25 C 54.863281 31.292969 52.792969 33.449219 50.261719 36.019531 C 47.738281 38.589844 45.417969 40.9375 45.113281 41.25 L 44.570312 41.8125 L 44.570312 20.933594 L 49.71875 26.039062 C 52.546875 28.847656 54.863281 31.191406 54.863281 31.25 Z M 50.757812 74.484375 C 53.019531 76.777344 54.863281 78.695312 54.863281 78.75 C 54.863281 78.808594 52.546875 81.152344 49.71875 83.960938 L 44.570312 89.066406 L 44.570312 78.628906 L 44.582031 68.1875 L 45.609375 69.253906 C 46.175781 69.839844 48.496094 72.195312 50.757812 74.484375 Z M 50.757812 74.484375 "/>
<path style=" stroke:none;fill-rule:nonzero;fill:rgb(0%,0%,0%);fill-opacity:1;" d="M 88.382812 29.328125 L 84.851562 32.832031 L 85.203125 33.503906 C 86.199219 35.425781 87.453125 38.613281 88.28125 41.304688 C 90.441406 48.390625 90.894531 55.898438 89.582031 63.304688 C 88.878906 67.324219 87.351562 72.050781 85.519531 75.832031 L 84.875 77.203125 L 88.121094 80.421875 C 91.367188 83.644531 91.378906 83.65625 91.550781 83.386719 C 92.320312 82.207031 93.507812 80.074219 94.402344 78.289062 C 97.433594 72.171875 99.117188 66.15625 99.785156 59.039062 C 100.101562 55.695312 99.910156 49.824219 99.367188 46.1875 C 98.359375 39.398438 96.007812 32.71875 92.625 27.027344 L 91.902344 25.828125 Z M 88.382812 29.328125 "/>
<path style=" stroke:none;fill-rule:nonzero;fill:rgb(0%,0%,0%);fill-opacity:1;" d="M 68.835938 48.714844 L 62.511719 54.988281 L 63.640625 56.144531 C 67.773438 60.367188 75.160156 67.796875 75.214844 67.796875 C 75.394531 67.796875 76.449219 64.609375 76.910156 62.632812 C 77.578125 59.835938 77.761719 58.277344 77.761719 55.054688 C 77.761719 51.824219 77.589844 50.332031 76.921875 47.59375 C 76.550781 46.078125 75.363281 42.429688 75.238281 42.429688 C 75.203125 42.429688 72.320312 45.257812 68.835938 48.714844 Z M 68.835938 48.714844 "/>
</g>
</svg>
